<?xml version="1.0" encoding="UTF-8"?>
<!DOCTYPE svg PUBLIC "-//W3C//DTD SVG 1.1//EN" "http://www.w3.org/Graphics/SVG/1.1/DTD/svg11.dtd">
<!-- Creator: CorelDRAW X8 -->
<svg xmlns="http://www.w3.org/2000/svg" xml:space="preserve" width="55mm" height="25mm" version="1.1" style="shape-rendering:geometricPrecision; text-rendering:geometricPrecision; image-rendering:optimizeQuality; fill-rule:evenodd; clip-rule:evenodd"
viewBox="0 0 4811745 2187157"
 xmlns:xlink="http://www.w3.org/1999/xlink">
 <defs>
  <style type="text/css">
   <![CDATA[
    .fil0 {fill:none}
    .fil1 {fill:#003366;fill-rule:nonzero}
    .fil2 {fill:#00CCCC;fill-rule:nonzero}
   ]]>
  </style>
 </defs>
 <g id="Слой_x0020_1">
  <metadata id="CorelCorpID_0Corel-Layer"/>
  <rect class="fil0" x="4" width="4811746" height="2187157"/>
  <g id="_2262327348784">
   <polygon class="fil1" points="262459,262468 649411,262468 780203,922403 917364,262468 1377367,262468 1534308,922403 1656815,262468 2046330,262468 1836092,1178248 1766882,1456463 1281035,1456463 1127917,830350 1012741,1456463 526904,1456463 324023,544541 "/>
   <path class="fil2" d="M4463909 627224l-1765937 -184c-113601,0 -227534,99289 -227534,220947 0,139173 194000,338598 194000,524708 0,313498 -240578,552003 -536789,552003l-1488763 0 -8311 0 -80785 -364730 12134 0 1458589 184c114581,-1085 269913,-133163 157230,-333778 -75106,-133688 -137650,-230946 -137650,-390171 0,-319168 215610,-570630 535914,-570630l1973280 -3105 -85378 364756z"/>
   <polygon class="fil1" points="2655812,730703 3042764,730703 3173556,1425668 3310717,730703 3770720,730703 3927670,1425668 4050177,730703 4439684,730703 4229445,1646483 4160235,1924698 3674389,1924698 3521270,1298585 3406103,1924698 2920257,1924698 2717376,1012776 "/>
  </g>
 </g>
</svg>
